name C:\Users\u0150099\Documents\master_thesis\3dpredictsim\Results\debug\Fal_s1_mtp_sd_MTPp_k1_d05_ig21__v1.mot
datacolumns 126
datarows 4
range 1.55933946 1.59052624
endheader
time	pelvis_tilt	pelvis_list	pelvis_rotation	pelvis_tx	pelvis_ty	pelvis_tz	hip_flexion_l	hip_adduction_l	hip_rotation_l	hip_flexion_r	hip_adduction_r	hip_rotation_r	knee_angle_l	knee_angle_r	ankle_angle_l	ankle_angle_r	subtalar_angle_l	subtalar_angle_r	mtj_angle_l	mtj_angle_r	mtp_angle_l	mtp_angle_r	lumbar_extension	lumbar_bending	lumbar_rotation	arm_flex_l	arm_add_l	arm_rot_l	arm_flex_r	arm_add_r	arm_rot_r	elbow_flex_l	elbow_flex_r	glut_med1_l/activation	glut_med2_l/activation	glut_med3_l/activation	glut_min1_l/activation	glut_min2_l/activation	glut_min3_l/activation	semimem_l/activation	semiten_l/activation	bifemlh_l/activation	bifemsh_l/activation	sar_l/activation	add_long_l/activation	add_brev_l/activation	add_mag1_l/activation	add_mag2_l/activation	add_mag3_l/activation	tfl_l/activation	pect_l/activation	grac_l/activation	glut_max1_l/activation	glut_max2_l/activation	glut_max3_l/activation	iliacus_l/activation	psoas_l/activation	quad_fem_l/activation	gem_l/activation	peri_l/activation	rect_fem_l/activation	vas_med_l/activation	vas_int_l/activation	vas_lat_l/activation	med_gas_l/activation	lat_gas_l/activation	soleus_l/activation	tib_post_l/activation	flex_dig_l/activation	flex_hal_l/activation	tib_ant_l/activation	per_brev_l/activation	per_long_l/activation	per_tert_l/activation	ext_dig_l/activation	ext_hal_l/activation	ercspn_l/activation	intobl_l/activation	extobl_l/activation	glut_med1_r/activation	glut_med2_r/activation	glut_med3_r/activation	glut_min1_r/activation	glut_min2_r/activation	glut_min3_r/activation	semimem_r/activation	semiten_r/activation	bifemlh_r/activation	bifemsh_r/activation	sar_r/activation	add_long_r/activation	add_brev_r/activation	add_mag1_r/activation	add_mag2_r/activation	add_mag3_r/activation	tfl_r/activation	pect_r/activation	grac_r/activation	glut_max1_r/activation	glut_max2_r/activation	glut_max3_r/activation	iliacus_r/activation	psoas_r/activation	quad_fem_r/activation	gem_r/activation	peri_r/activation	rect_fem_r/activation	vas_med_r/activation	vas_int_r/activation	vas_lat_r/activation	med_gas_r/activation	lat_gas_r/activation	soleus_r/activation	tib_post_r/activation	flex_dig_r/activation	flex_hal_r/activation	tib_ant_r/activation	per_brev_r/activation	per_long_r/activation	per_tert_r/activation	ext_dig_r/activation	ext_hal_r/activation	ercspn_r/activation	intobl_r/activation	extobl_r/activation	
          1.55933946	         -2.93004673	          1.63959396	         -3.22151382	          2.07392148	          0.90367549	          0.00355166	         30.74196473	          3.70607631	         -0.78494588	        -18.38628183	          0.64828471	          7.65771662	        -13.19099848	         -2.96865214	          7.06007812	          3.07582189	         -8.34764366	          4.63877547	         13.69202052	         22.45825057	         -3.42737383	         -0.77316447	          1.78242542	         -4.95585168	        -13.45061015	          7.10969985	          5.22037296	        -13.56088477	         19.31661224	         22.76024642	         32.29684196	         86.51662706	         86.51662706	          0.05000066	          0.05000758	          0.05000130	          0.05866235	          0.05001396	          0.05000282	          0.08585194	          0.06882834	          0.31826588	          0.05000062	          0.05000071	          0.15525547	          0.18634917	          0.18794387	          0.17931110	          0.13309396	          0.05000079	          0.05177832	          0.15268735	          0.05528771	          0.07796783	          0.11066985	          0.05000039	          0.05000035	          0.11405450	          0.05000459	          0.05000245	          0.05000040	          0.06705715	          0.06986902	          0.05590371	          0.05000531	          0.05000078	          0.06479848	          0.05000275	          0.05000367	          0.05000920	          0.46827835	          0.32371616	          0.20951424	          0.21190903	          0.47082160	          0.14073167	          0.08763936	          0.09322119	          0.10258153	          0.34555057	          0.10343548	          0.08073451	          0.49799733	          0.28054868	          0.12606525	          0.05000198	          0.05000044	          0.05000033	          0.08460390	          0.13077464	          0.05000011	          0.05000018	          0.05000032	          0.05000103	          0.05000085	          0.65206488	          0.05000076	          0.05000083	          0.05863519	          0.05001108	          0.05000210	          0.40305716	          0.70969914	          0.05000052	          0.05000511	          0.05866322	          0.23624827	          0.05000150	          0.05000137	          0.05000137	          0.36507402	          0.51235024	          0.32388387	          0.29450342	          0.43766504	          0.49812539	          0.05117632	          0.05000038	          0.09428867	          0.05000028	          0.05000010	          0.05000045	          0.05000004	          0.05000003	          0.05000004	
          1.56973505	         -2.92768205	          1.84369229	         -3.54603910	          2.09013656	          0.90251878	          0.00327615	         30.22384901	          4.17913158	         -0.64854322	        -18.36255137	          0.25754575	          7.49807624	        -12.57646231	         -4.78589349	          6.73037082	          2.60497300	         -8.61633072	          5.60645406	         13.40897824	         24.09484759	         -3.24888274	         -1.03399407	          1.89454528	         -5.65490614	        -13.46412480	          6.92030817	          4.88377346	        -13.51659287	         19.18652538	         22.16125302	         33.72389856	         86.51662706	         86.51662706	          0.09388697	          0.05000076	          0.05000106	          0.05000078	          0.05000087	          0.05000205	          0.07810379	          0.05866450	          0.30431266	          0.05000028	          0.05000101	          0.15301214	          0.22510465	          0.17287380	          0.20089968	          0.15055516	          0.05000297	          0.05869190	          0.13014366	          0.05000302	          0.07942926	          0.11227103	          0.05000036	          0.05000026	          0.25262912	          0.05000090	          0.05000029	          0.05000043	          0.13735451	          0.13979247	          0.11616752	          0.05429981	          0.05019623	          0.05866297	          0.05000012	          0.05000082	          0.05000082	          0.51477973	          0.34587044	          0.20251949	          0.31517070	          0.50957359	          0.25600947	          0.07469736	          0.07945487	          0.08743296	          0.31779740	          0.08816078	          0.06881215	          0.42445661	          0.23911903	          0.10744873	          0.05000175	          0.05000037	          0.05000024	          0.07211014	          0.11146279	          0.05737282	          0.05000063	          0.05000051	          0.05000152	          0.05000084	          0.60393399	          0.05000550	          0.05000087	          0.05000231	          0.05000137	          0.05000112	          0.34353631	          0.69566495	          0.05000014	          0.05000043	          0.05000030	          0.20136094	          0.05000142	          0.05000133	          0.05000118	          0.31116212	          0.43669010	          0.31250779	          0.28529054	          0.44352592	          0.49953714	          0.05000003	          0.05866301	          0.10736592	          0.05000028	          0.05000007	          0.05000026	          0.05000004	          0.05000002	          0.05000005	
          1.58013065	         -2.92176310	          2.04500247	         -3.85675507	          2.10669091	          0.90142059	          0.00297915	         29.63396218	          4.64655016	         -0.47149974	        -18.22775548	         -0.12913204	          7.33089639	        -12.51471069	         -6.80739831	          6.18331365	          1.94767159	         -8.88835752	          6.56994690	         13.13097189	         25.79221408	         -3.04485247	         -1.29423632	          1.99945780	         -6.40567154	        -13.49109865	          6.85508439	          4.44670562	        -13.48657174	         19.02411971	         21.63268840	         35.21773695	         86.51662706	         86.51662706	          0.08002237	          0.05000058	          0.05000030	          0.05000226	          0.05000122	          0.05000048	          0.06656994	          0.05000148	          0.26266836	          0.05000156	          0.05000199	          0.13041692	          0.19186464	          0.36826727	          0.26524664	          0.13791241	          0.05000021	          0.05003148	          0.11253114	          0.05000602	          0.09500736	          0.15736122	          0.05000159	          0.05344036	          0.55856264	          0.15821414	          0.06586657	          0.06882698	          0.20307963	          0.22637038	          0.17844500	          0.05000001	          0.05000003	          0.05000000	          0.05000991	          0.05000176	          0.05000093	          0.58116783	          0.30415333	          0.22082401	          0.45681976	          0.54115989	          0.21820418	          0.06366653	          0.06772146	          0.07452142	          0.27086716	          0.07514176	          0.05865048	          0.36177562	          0.20380744	          0.09158139	          0.05000422	          0.05000049	          0.05000047	          0.06146138	          0.09500275	          0.13643084	          0.12833422	          0.06870093	          0.05001692	          0.05653842	          0.56572250	          0.05268292	          0.05000244	          0.05000404	          0.05000288	          0.05000360	          0.29280501	          0.64776537	          0.05000051	          0.05000434	          0.05352297	          0.17231162	          0.17951865	          0.17952210	          0.17284124	          0.26521158	          0.37220240	          0.27021343	          0.27465404	          0.41379709	          0.47695331	          0.05000005	          0.05000020	          0.09744538	          0.05000015	          0.05000005	          0.05000028	          0.05772149	          0.06882692	          0.05000004	
          1.59052624	         -2.91299705	          2.25225355	         -4.15225465	          2.12352037	          0.90039352	          0.00269526	         28.94755264	          5.04396515	         -0.22626015	        -17.99336527	         -0.51513132	          7.14791098	        -12.97255791	         -8.99163339	          5.56969256	          1.05930597	         -9.18540902	          7.49016675	         12.78847492	         27.52112573	         -2.82053057	         -1.56163988	          2.09372660	         -7.19065701	        -13.53378564	          6.90093467	          3.92388620	        -13.46351327	         18.83990660	         21.15408801	         36.76076012	         86.51662706	         86.51662706	          0.34357628	          0.05000011	          0.29497900	          0.05000013	          0.05000016	          0.05000034	          0.09075674	          0.05000051	          0.22387934	          0.05000007	          0.05000034	          0.11115799	          0.34560587	          0.31388434	          0.23553269	          0.17700232	          0.05000058	          0.06888123	          0.15172036	          0.05000031	          0.15370835	          0.15746536	          0.05000028	          0.05000020	          0.47607761	          0.13485013	          0.05614066	          0.05866305	          0.17309085	          0.19294601	          0.15209384	          0.05866531	          0.05866627	          0.05866361	          0.05866302	          0.05866279	          0.05866293	          0.49534473	          0.34276247	          0.18821422	          0.38935981	          0.56723124	          0.18598117	          0.05426468	          0.05772092	          0.06351657	          0.34490356	          0.06404530	          0.05000014	          0.30835145	          0.17371047	          0.07805724	          0.05000329	          0.05000098	          0.05000077	          0.05238519	          0.08097344	          0.18026939	          0.19694695	          0.05856594	          0.05014352	          0.08313352	          0.60915211	          0.05000504	          0.05000145	          0.05000782	          0.05000673	          0.05000984	          0.24956541	          0.62151141	          0.05000042	          0.05000076	          0.05000009	          0.14686573	          0.15300927	          0.15301187	          0.14731792	          0.22604675	          0.31723782	          0.23030995	          0.23671160	          0.35269085	          0.40652107	          0.05000003	          0.05000063	          0.14160868	          0.05000013	          0.05000004	          0.05000020	          0.06370445	          0.05866300	          0.05000028	
